<svg width="512" height="512" viewBox="0 0 512 512" fill="none" xmlns="http://www.w3.org/2000/svg">
<g clip-path="url(#clip0)">
<path d="M476.054 22.8008H417.679C413.535 22.8008 410.179 26.1563 410.179 30.3008C410.179 34.4414 413.535 37.8008 417.679 37.8008H476.054C477.433 37.8008 478.554 38.9219 478.554 40.3008V334.16C478.554 338.301 481.914 341.66 486.054 341.66C490.199 341.66 493.554 338.301 493.554 334.16V40.3008C493.554 30.6484 485.707 22.8008 476.054 22.8008Z" fill="#FFB39A"/>
<path d="M486.055 359.32C481.914 359.32 478.555 362.676 478.555 366.82V467.988C478.555 483.434 465.992 496 450.547 496C435.101 496 422.539 483.434 422.539 467.988V301.164C422.539 277.449 403.242 258.156 379.527 258.156C355.812 258.156 336.519 277.449 336.519 301.164V351.895C336.519 367.34 323.953 379.902 308.512 379.902C293.066 379.902 280.5 367.34 280.5 351.895V314.457L318.676 276.277C323.887 271.07 325.64 263.715 323.992 257.039L416 165.031C423.91 157.121 423.91 144.246 416 136.336L317.461 37.8008H385.015C389.16 37.8008 392.515 34.4414 392.515 30.3008C392.515 26.1562 389.16 22.8008 385.015 22.8008H302.461L284.597 4.93359C276.683 -2.97656 263.812 -2.97656 255.902 4.93359L163.902 96.9297C162.316 96.5391 160.679 96.3125 159 96.3125C153.582 96.3125 148.484 98.4219 144.652 102.254L104.859 142.051C96.949 149.961 96.949 162.832 104.859 170.742L157.633 223.52C134.461 246.152 107.269 266.73 76.7264 284.711C67.8436 289.941 59.3748 296.559 51.5506 304.379C37.4412 318.492 27.1521 334.902 22.5818 350.59C17.5623 367.832 19.91 382.445 29.199 391.734C35.3943 397.93 43.8982 400.961 53.7186 400.961C68.0936 400.957 85.2811 394.457 102.129 381.883C105.445 379.402 106.129 374.703 103.652 371.387C101.172 368.066 96.4725 367.383 93.1561 369.863C71.7146 385.863 49.2811 390.602 39.8045 381.129C34.6404 375.961 33.6131 366.363 36.9842 354.785C40.8592 341.48 49.8006 327.348 62.16 314.988C69.0857 308.062 76.5467 302.223 84.3357 297.641C115.976 279.012 144.176 257.652 168.238 234.129L186.804 252.691C163.277 276.758 141.922 304.957 123.293 336.598C120.965 340.551 118.226 344.531 115.148 348.426C112.582 351.676 113.137 356.395 116.387 358.961C117.762 360.047 119.402 360.574 121.031 360.574C123.246 360.574 125.441 359.598 126.922 357.723C130.422 353.293 133.551 348.746 136.219 344.207C154.203 313.66 174.781 286.469 197.414 263.297L250.187 316.07C254.019 319.906 259.113 322.016 264.535 322.016C264.859 322.016 265.179 321.984 265.5 321.969V351.895C265.5 375.609 284.797 394.902 308.512 394.902C332.226 394.902 351.519 375.609 351.519 351.895V301.164C351.519 285.723 364.086 273.156 379.531 273.156C394.972 273.156 407.539 285.719 407.539 301.164V467.988C407.539 491.707 426.832 511 450.547 511C474.265 511 493.558 491.707 493.558 467.988V366.82C493.555 362.676 490.199 359.32 486.055 359.32ZM266.508 15.5391C268.57 13.4766 271.926 13.4766 273.988 15.5391L405.39 146.945C407.453 149.004 407.453 152.363 405.39 154.422L315.453 244.359L280.371 209.277L295.566 194.082C298.496 191.148 298.496 186.402 295.566 183.473C292.637 180.547 287.887 180.547 284.961 183.473L269.762 198.668L216.644 145.551L231.844 130.355C234.773 127.43 234.773 122.68 231.844 119.75C228.914 116.824 224.164 116.82 221.238 119.75L206.039 134.945L197.957 126.863L257.769 67.0508C260.699 64.1172 260.699 59.3711 257.769 56.4414C254.84 53.5117 250.09 53.5117 247.164 56.4414L187.347 116.254L176.57 105.477L266.508 15.5391ZM260.797 305.465L115.465 160.137C113.402 158.074 113.402 154.719 115.465 152.656L155.262 112.863C156.262 111.863 157.59 111.312 159 111.312C160.414 111.312 161.742 111.863 162.742 112.863L308.07 258.191C310.133 260.254 310.133 263.609 308.07 265.672L268.277 305.465C267.277 306.465 265.949 307.016 264.535 307.016C263.121 307.016 261.797 306.465 260.797 305.465Z" fill="#FFB39A"/>
<path d="M167.773 173.82C164.844 170.891 160.094 170.891 157.164 173.82C154.234 176.75 154.234 181.496 157.164 184.426L236.508 263.77C237.972 265.23 239.89 265.965 241.812 265.965C243.73 265.965 245.648 265.23 247.113 263.77C250.043 260.836 250.043 256.09 247.113 253.16L167.773 173.82Z" fill="#FFB39A"/>
<path d="M443.519 181.277H443.441C439.297 181.277 435.98 184.633 435.98 188.777C435.98 192.922 439.375 196.277 443.519 196.277C447.664 196.277 451.019 192.922 451.019 188.777C451.019 184.633 447.664 181.277 443.519 181.277Z" fill="#FFB39A"/>
<path d="M449.699 201.777C445.555 201.832 442.281 205.23 442.332 209.371C442.383 213.48 445.769 216.777 449.867 216.777H449.965C454.105 216.723 457.422 213.324 457.371 209.184C457.32 205.074 453.973 201.777 449.871 201.777C449.84 201.777 449.808 201.777 449.777 201.777H449.699Z" fill="#FFB39A"/>
<path d="M403.148 224.883C399.004 224.883 395.687 228.238 395.687 232.383C395.687 236.523 399.082 239.883 403.226 239.883C407.371 239.883 410.726 236.523 410.726 232.383C410.726 228.238 407.371 224.883 403.226 224.883H403.148Z" fill="#FFB39A"/>
</g>
<defs>
<clipPath id="clip0">
<rect width="512" height="512" fill="white"/>
</clipPath>
</defs>
</svg>
